<svg xmlns="http://www.w3.org/2000/svg" xmlns:xlink="http://www.w3.org/1999/xlink" width="500" zoomAndPan="magnify" viewBox="0 0 375 374.999991" height="500" preserveAspectRatio="xMidYMid meet" version="1.0"><defs><clipPath id="9deb560787"><path d="M 52.933594 140.640625 L 260.683594 140.640625 L 260.683594 348.390625 L 52.933594 348.390625 Z M 52.933594 140.640625 " clip-rule="nonzero"/></clipPath><clipPath id="63b0964a12"><path d="M 70 26.5625 L 322.0625 26.5625 L 322.0625 229 L 70 229 Z M 70 26.5625 " clip-rule="nonzero"/></clipPath></defs><g clip-path="url(#9deb560787)"><path fill="#ebb22f" d="M 156.863281 140.609375 C 214.246094 140.609375 260.753906 187.125 260.753906 244.5 C 260.753906 288.289062 233.660156 325.75 195.316406 341.039062 L 193.800781 308.304688 L 193.800781 308.242188 C 193.882812 301.765625 196.617188 296.664062 202.683594 294.097656 L 203.464844 293.785156 L 203.503906 293.773438 L 203.554688 293.75 L 203.628906 293.722656 C 208.097656 291.914062 211.734375 289.480469 214.210938 285.265625 C 217.304688 280.011719 217.90625 273.015625 217.90625 267.058594 C 217.90625 255.609375 214.53125 242.09375 208.714844 232.195312 C 204.582031 225.160156 198.066406 218.046875 189.265625 218.046875 C 180.464844 218.046875 173.949219 225.160156 169.816406 232.195312 C 164 242.09375 160.625 255.609375 160.625 267.058594 C 160.625 273.019531 161.222656 280.019531 164.320312 285.265625 C 166.824219 289.507812 170.503906 291.949219 174.992188 293.757812 C 175.117188 293.804688 175.242188 293.863281 175.367188 293.910156 L 175.402344 293.910156 L 175.789062 294.078125 C 181.878906 296.636719 184.644531 301.679688 184.730469 308.242188 L 184.730469 308.304688 L 183.027344 345.074219 C 174.664062 347.246094 165.898438 348.398438 156.863281 348.398438 C 147.507812 348.398438 138.441406 347.15625 129.816406 344.839844 L 128.222656 310.410156 L 128.222656 310.335938 C 128.308594 303.699219 131.136719 298.46875 137.351562 295.835938 L 138.144531 295.523438 L 138.171875 295.519531 L 138.199219 295.503906 L 138.289062 295.46875 C 142.671875 293.695312 146.246094 291.308594 148.683594 287.171875 C 151.734375 281.988281 152.320312 275.039062 152.320312 269.160156 C 152.320312 268.589844 152.300781 268.019531 152.265625 267.449219 C 152.242188 267.121094 152.214844 266.796875 152.175781 266.476562 L 152.117188 265.996094 L 152.210938 265.667969 L 148.433594 221.726562 L 144.480469 221.730469 L 144.140625 268.171875 L 137.558594 268.828125 L 133.648438 216.335938 L 129.363281 216.589844 L 128.515625 269.472656 L 126.183594 269.570312 C 125.699219 269.589844 125.210938 269.597656 124.730469 269.597656 C 124.246094 269.597656 123.75 269.589844 123.265625 269.570312 L 120.949219 269.472656 L 119.757812 216.589844 L 115.472656 216.339844 L 111.902344 268.832031 L 105.316406 268.179688 L 104.984375 221.730469 L 101.011719 221.730469 L 95.90625 265.6875 L 95.988281 266.003906 L 95.933594 266.46875 C 95.898438 266.796875 95.871094 267.121094 95.847656 267.449219 C 95.8125 268.019531 95.792969 268.589844 95.792969 269.160156 C 95.792969 275.039062 96.378906 281.988281 99.429688 287.171875 C 101.886719 291.34375 105.503906 293.730469 109.914062 295.503906 C 110.019531 295.546875 110.125 295.585938 110.21875 295.628906 L 110.253906 295.628906 L 110.714844 295.824219 C 116.941406 298.445312 119.800781 303.621094 119.890625 310.335938 L 119.890625 310.410156 L 118.472656 341.089844 C 80.078125 325.828125 52.941406 288.339844 52.941406 244.507812 C 52.96875 187.117188 99.480469 140.609375 156.863281 140.609375 " fill-opacity="1" fill-rule="evenodd"/></g><path fill="#f6f5f4" d="M 197.167969 75.558594 C 199.019531 75.558594 199.019531 72.660156 197.167969 72.660156 C 195.316406 72.660156 195.316406 75.558594 197.167969 75.558594 Z M 197.167969 75.558594 " fill-opacity="1" fill-rule="nonzero"/><g clip-path="url(#63b0964a12)"><path fill="#4d433a" d="M 77.515625 65.566406 C 79.058594 62.175781 80.847656 58.722656 83.191406 55.328125 C 85.472656 51.9375 88.1875 48.484375 91.761719 45.152344 C 93.550781 43.488281 95.585938 41.820312 97.871094 40.28125 C 98.855469 39.601562 99.71875 39.046875 100.707031 38.429688 C 101.632812 37.8125 102.617188 37.257812 103.605469 36.703125 C 107.550781 34.421875 111.871094 32.324219 116.679688 30.597656 C 121.429688 28.871094 126.671875 27.574219 131.976562 27.019531 C 133.332031 26.894531 134.628906 26.773438 135.984375 26.710938 C 137.34375 26.648438 138.636719 26.648438 139.933594 26.710938 C 142.585938 26.773438 145.113281 27.082031 147.582031 27.511719 C 152.515625 28.375 156.957031 29.796875 160.964844 31.582031 C 164.910156 33.371094 168.425781 35.40625 171.574219 37.628906 C 173.113281 38.738281 174.65625 39.910156 176.074219 41.082031 C 177.492188 42.253906 178.851562 43.488281 180.082031 44.722656 C 181.378906 45.953125 182.613281 47.1875 183.785156 48.484375 C 184.402344 49.101562 184.957031 49.777344 185.511719 50.394531 L 186.375 51.382812 L 187.113281 52.308594 C 188.101562 53.480469 189.027344 54.589844 190.015625 55.761719 L 191.492188 57.488281 L 193.035156 59.214844 C 200.621094 67.601562 208.824219 75.867188 217.273438 84.070312 C 218.570312 83.761719 219.863281 83.515625 221.222656 83.332031 C 222.949219 83.023438 224.675781 82.835938 226.464844 82.652344 C 228.191406 82.46875 229.980469 82.34375 231.707031 82.28125 C 232.570312 82.21875 233.496094 82.21875 234.359375 82.21875 C 235.222656 82.21875 236.148438 82.21875 237.011719 82.21875 C 244.042969 82.34375 251.195312 83.390625 257.796875 85.675781 C 259.460938 86.230469 261.066406 86.90625 262.667969 87.648438 C 264.273438 88.386719 265.753906 89.25 267.234375 90.113281 C 268.714844 91.039062 270.070312 92.027344 271.363281 93.074219 C 272.660156 94.125 273.894531 95.296875 275.003906 96.527344 C 275.558594 97.144531 276.113281 97.761719 276.609375 98.378906 C 277.101562 98.996094 277.59375 99.675781 278.085938 100.351562 C 279.011719 101.648438 279.816406 103.066406 280.554688 104.421875 C 281.109375 105.472656 281.601562 106.582031 282.035156 107.691406 C 283.453125 107.878906 284.808594 108.125 286.105469 108.433594 C 289.25 109.109375 292.335938 109.972656 295.296875 111.144531 C 301.214844 113.429688 306.582031 116.695312 310.839844 120.890625 C 312.996094 122.988281 314.785156 125.269531 316.328125 127.738281 C 317.066406 128.972656 317.746094 130.203125 318.363281 131.4375 C 318.980469 132.734375 319.472656 134.027344 319.90625 135.324219 C 320.769531 137.914062 321.382812 140.566406 321.691406 143.21875 C 321.753906 143.898438 321.816406 144.511719 321.878906 145.191406 C 321.941406 145.871094 321.941406 146.488281 322 147.164062 C 322 147.84375 322.0625 148.460938 322.0625 149.140625 L 322.0625 151.113281 C 321.941406 153.886719 321.507812 156.785156 320.644531 159.871094 C 319.71875 162.953125 318.300781 166.160156 316.082031 169.367188 C 314.96875 170.972656 313.675781 172.574219 312.132812 174.054688 C 310.589844 175.535156 308.925781 176.957031 307.136719 178.25 C 305.347656 179.546875 303.4375 180.65625 301.464844 181.582031 C 299.488281 182.566406 297.515625 183.308594 295.542969 183.984375 C 291.59375 185.34375 287.769531 186.144531 284.070312 186.636719 C 280.429688 187.132812 276.914062 187.316406 273.523438 187.378906 C 271.980469 187.378906 270.441406 187.316406 268.960938 187.253906 C 268.15625 190.769531 267.355469 194.222656 266.554688 197.738281 C 265.691406 201.441406 264.765625 205.140625 263.839844 208.84375 C 262.914062 212.542969 261.988281 216.242188 261.003906 219.945312 L 260.511719 221.855469 C 259.953125 223.953125 258.414062 225.925781 255.945312 227.28125 C 251.320312 229.933594 245.335938 229.320312 242.5625 225.925781 C 242.5625 225.925781 242.4375 225.804688 242.378906 225.742188 L 242.191406 225.554688 L 241.761719 225.1875 L 240.898438 224.382812 C 240.339844 223.828125 239.726562 223.335938 239.109375 222.78125 C 237.875 221.730469 236.640625 220.683594 235.40625 219.636719 C 232.878906 217.539062 230.289062 215.441406 227.699219 213.46875 C 222.457031 209.398438 216.90625 205.511719 211.230469 201.75 C 205.496094 197.988281 199.574219 194.410156 193.40625 191.015625 C 187.238281 187.625 180.761719 184.480469 174.039062 181.457031 C 176.011719 181.640625 177.988281 181.828125 179.960938 182.136719 C 180.949219 182.257812 181.933594 182.445312 182.921875 182.566406 L 185.820312 183.0625 L 187.300781 183.308594 L 188.71875 183.617188 L 191.617188 184.234375 C 192.542969 184.417969 193.53125 184.664062 194.453125 184.910156 C 195.378906 185.15625 196.367188 185.34375 197.292969 185.589844 C 204.816406 187.5 212.15625 189.90625 219.1875 192.683594 C 226.21875 195.457031 233.0625 198.605469 239.601562 202.058594 C 240.402344 202.488281 241.144531 202.921875 241.945312 203.289062 C 242.070312 202.179688 242.191406 201.132812 242.378906 200.023438 C 242.128906 199.835938 241.882812 199.589844 241.636719 199.40625 C 240.898438 198.789062 240.09375 198.171875 239.292969 197.554688 C 236.148438 195.148438 232.941406 192.804688 229.546875 190.585938 C 226.15625 188.367188 222.640625 186.269531 218.941406 184.292969 C 215.238281 182.382812 211.355469 180.65625 207.097656 179.296875 C 211.785156 179.484375 216.472656 180.101562 221.097656 180.964844 C 225.664062 181.828125 230.164062 182.9375 234.605469 184.171875 C 237.8125 185.097656 240.957031 186.082031 244.042969 187.070312 C 244.105469 186.761719 244.105469 186.390625 244.164062 186.082031 C 244.226562 185.464844 244.351562 184.851562 244.414062 184.234375 C 243.117188 183.0625 241.820312 181.828125 240.464844 180.71875 C 238.554688 179.175781 236.578125 177.570312 234.421875 176.214844 C 232.261719 174.796875 230.042969 173.5 227.453125 172.453125 C 230.472656 172.328125 233.558594 172.574219 236.578125 172.882812 C 239.601562 173.253906 242.5625 173.746094 245.523438 174.363281 C 245.644531 174.363281 245.707031 174.425781 245.832031 174.425781 C 245.894531 174.054688 246.015625 173.625 246.140625 173.253906 C 248.175781 167.703125 255.265625 164.003906 261.988281 164.988281 L 263.222656 165.175781 L 264.582031 165.359375 C 265.136719 165.421875 265.691406 165.484375 266.246094 165.546875 C 267.355469 165.667969 268.464844 165.792969 269.636719 165.851562 C 271.921875 166.039062 274.140625 166.039062 276.359375 165.976562 C 280.679688 165.914062 284.808594 165.238281 287.585938 164.25 C 289.003906 163.757812 290.054688 163.203125 290.917969 162.644531 C 291.347656 162.335938 291.71875 162.03125 292.089844 161.722656 C 292.457031 161.351562 292.765625 160.980469 293.074219 160.550781 C 293.753906 159.6875 294.308594 158.515625 294.800781 157.15625 C 295.234375 155.800781 295.605469 154.195312 295.726562 152.53125 L 295.789062 152.222656 L 295.789062 151.851562 L 295.851562 151.175781 C 295.914062 150.742188 295.914062 150.25 295.914062 149.816406 L 295.914062 148.460938 C 295.914062 148.027344 295.914062 147.597656 295.851562 147.164062 C 295.726562 145.4375 295.542969 143.773438 295.109375 142.167969 C 294.742188 140.566406 294.183594 139.023438 293.507812 137.605469 C 292.828125 136.1875 291.964844 134.832031 290.917969 133.535156 C 289.867188 132.238281 288.695312 131.066406 287.339844 129.957031 C 285.980469 128.847656 284.441406 127.859375 282.773438 126.933594 C 281.109375 126.011719 279.257812 125.269531 277.347656 124.59375 C 276.359375 124.285156 275.375 123.976562 274.386719 123.667969 C 273.894531 123.542969 273.398438 123.421875 272.90625 123.296875 L 272.230469 123.171875 L 271.921875 123.113281 L 271.734375 123.113281 L 271.796875 123.113281 L 263.777344 117.003906 C 263.65625 114.785156 263.410156 112.566406 262.855469 110.46875 C 262.296875 108.371094 261.496094 106.335938 260.449219 104.421875 C 258.289062 100.601562 255.019531 97.144531 250.640625 94.308594 C 248.484375 92.890625 246.015625 91.65625 243.425781 90.546875 C 242.128906 89.992188 240.773438 89.496094 239.355469 89.003906 C 237.9375 88.511719 236.519531 88.078125 235.039062 87.648438 C 234.296875 87.460938 233.558594 87.277344 232.816406 87.09375 C 232.078125 86.90625 231.335938 86.722656 230.535156 86.539062 C 228.992188 86.167969 227.453125 85.921875 225.847656 85.613281 C 223.195312 85.179688 220.542969 84.75 217.769531 84.503906 C 218.261719 84.996094 218.753906 85.488281 219.25 85.921875 L 226.15625 92.519531 L 233.125 99.179688 C 237.8125 103.621094 242.4375 108.0625 247.125 112.625 C 243.671875 111.453125 240.402344 110.097656 237.132812 108.679688 C 235.53125 108 233.867188 107.261719 232.261719 106.519531 L 227.511719 104.300781 C 221.160156 101.277344 215.054688 98.007812 209.070312 94.617188 C 203.089844 91.164062 197.292969 87.585938 191.679688 83.699219 C 186.066406 79.875 180.640625 75.804688 175.457031 71.488281 C 174.164062 70.378906 172.867188 69.328125 171.632812 68.21875 C 170.339844 67.109375 169.105469 66 167.871094 64.828125 L 166.144531 63.285156 C 165.589844 62.792969 165.035156 62.296875 164.480469 61.804688 C 163.371094 60.820312 162.257812 59.894531 161.085938 59.03125 C 158.804688 57.242188 156.460938 55.574219 154.054688 54.09375 C 151.652344 52.675781 149.183594 51.382812 146.71875 50.457031 C 144.25 49.46875 141.84375 48.851562 139.4375 48.484375 C 137.09375 48.113281 134.75 48.113281 132.40625 48.359375 C 130.0625 48.605469 127.660156 49.222656 125.128906 50.085938 C 123.835938 50.519531 122.601562 51.074219 121.246094 51.691406 C 119.949219 52.308594 118.59375 52.984375 117.296875 53.664062 C 116.617188 54.035156 115.941406 54.402344 115.324219 54.835938 C 114.644531 55.207031 113.964844 55.636719 113.351562 56.070312 C 112.546875 56.5625 111.683594 57.242188 110.757812 57.980469 C 108.972656 59.523438 107.183594 61.558594 105.578125 63.777344 C 103.976562 66 102.433594 68.40625 101.078125 70.933594 C 99.71875 73.460938 98.546875 76.113281 97.5 78.765625 C 96.449219 81.480469 95.527344 84.195312 94.785156 86.96875 C 93.984375 89.746094 93.367188 92.582031 92.875 95.355469 C 91.824219 101.03125 91.394531 106.707031 91.394531 112.378906 C 91.453125 121.816406 92.996094 131.191406 96.390625 140.132812 C 96.449219 140.132812 96.511719 140.074219 96.511719 140.074219 C 98.425781 139.457031 100.335938 138.839844 102.25 138.222656 C 102 136.558594 101.878906 134.953125 101.753906 133.289062 C 101.507812 129.957031 101.445312 126.628906 101.507812 123.296875 C 101.570312 119.964844 101.753906 116.636719 102.125 113.304688 C 102.496094 109.972656 102.988281 106.707031 103.605469 103.375 C 104.222656 100.105469 105.023438 96.777344 105.886719 93.507812 L 106.566406 91.039062 C 106.8125 90.238281 107.058594 89.4375 107.367188 88.632812 C 107.859375 87.03125 108.476562 85.425781 109.03125 83.824219 C 111.4375 77.410156 114.398438 71.117188 117.914062 65.011719 C 115.816406 71.363281 114.335938 77.78125 113.472656 84.132812 C 113.289062 85.734375 113.042969 87.277344 112.917969 88.882812 C 112.855469 89.683594 112.792969 90.484375 112.734375 91.226562 L 112.609375 93.570312 C 112.488281 96.714844 112.425781 99.859375 112.609375 102.945312 C 112.734375 106.027344 112.980469 109.109375 113.410156 112.132812 C 113.84375 115.15625 114.335938 118.175781 115.015625 121.136719 C 115.695312 124.097656 116.496094 126.996094 117.421875 129.835938 C 117.914062 131.253906 118.40625 132.671875 118.902344 134.027344 C 118.902344 134.089844 118.960938 134.152344 118.960938 134.214844 C 121.304688 133.78125 123.710938 133.472656 126.054688 133.164062 C 126.054688 132.917969 126.117188 132.609375 126.117188 132.300781 C 126.300781 130.265625 126.546875 128.230469 126.917969 126.257812 C 127.597656 122.25 128.460938 118.300781 129.632812 114.414062 L 130.0625 112.933594 L 130.558594 111.453125 C 130.867188 110.46875 131.175781 109.542969 131.542969 108.554688 C 132.285156 106.644531 132.964844 104.730469 133.828125 102.820312 C 135.429688 99.058594 137.402344 95.355469 139.4375 91.71875 C 138.824219 95.542969 138.328125 99.304688 138.265625 103.066406 C 138.144531 104.917969 138.207031 106.765625 138.265625 108.617188 C 138.265625 109.542969 138.390625 110.46875 138.390625 111.394531 L 138.453125 112.75 L 138.574219 114.105469 C 138.945312 117.746094 139.5625 121.261719 140.363281 124.714844 C 140.796875 126.441406 141.289062 128.167969 141.78125 129.835938 C 142.03125 130.511719 142.277344 131.253906 142.523438 131.929688 L 147.949219 131.929688 C 148.011719 131.375 148.074219 130.882812 148.136719 130.328125 C 148.445312 127.613281 148.875 124.960938 149.554688 122.371094 L 149.800781 121.382812 L 150.046875 120.398438 C 150.234375 119.71875 150.417969 119.101562 150.601562 118.425781 C 151.035156 117.128906 151.40625 115.832031 151.898438 114.601562 C 152.761719 112.070312 153.933594 109.542969 155.105469 107.136719 C 155.414062 109.605469 155.722656 112.011719 156.339844 114.355469 C 156.585938 115.523438 156.957031 116.695312 157.324219 117.808594 C 157.511719 118.363281 157.695312 118.917969 157.878906 119.535156 L 158.1875 120.398438 L 158.496094 121.199219 C 159.359375 123.421875 160.347656 125.578125 161.457031 127.613281 C 162.011719 128.664062 162.628906 129.648438 163.246094 130.636719 C 163.554688 131.128906 163.863281 131.621094 164.234375 132.054688 C 164.417969 132.300781 164.542969 132.488281 164.726562 132.734375 C 164.789062 132.792969 164.851562 132.917969 164.910156 132.980469 C 167.378906 133.226562 169.785156 133.535156 172.128906 133.90625 C 177.988281 134.769531 183.722656 135.878906 189.335938 137.234375 C 194.949219 138.53125 200.375 140.132812 205.679688 141.921875 C 208.332031 142.785156 210.921875 143.710938 213.511719 144.761719 C 216.101562 145.746094 218.570312 146.796875 221.097656 147.90625 C 226.03125 150.125 230.84375 152.46875 235.285156 155.246094 C 223.996094 153.394531 212.773438 151.914062 201.546875 150.804688 C 195.933594 150.25 190.382812 149.816406 184.769531 149.507812 C 181.871094 149.324219 179.035156 149.261719 176.199219 149.140625 C 173.484375 149.078125 170.832031 149.015625 168.117188 149.015625 C 162.566406 149.015625 157.078125 149.199219 151.589844 149.507812 C 151.097656 149.570312 150.539062 149.570312 150.046875 149.632812 C 149.183594 149.695312 148.320312 149.753906 147.519531 149.816406 L 146.46875 149.878906 L 145.484375 150.003906 L 141.414062 150.371094 C 140.734375 150.433594 140.054688 150.558594 139.378906 150.621094 C 138.019531 150.804688 136.726562 150.925781 135.367188 151.175781 L 131.421875 151.792969 L 130.433594 151.976562 L 129.449219 152.160156 L 127.472656 152.53125 L 125.5 152.902344 C 124.820312 153.023438 124.203125 153.210938 123.589844 153.332031 C 122.292969 153.640625 120.996094 153.949219 119.765625 154.257812 L 116.003906 155.308594 L 115.078125 155.554688 C 114.769531 155.613281 114.460938 155.738281 114.152344 155.863281 L 112.300781 156.476562 C 111.992188 156.539062 111.683594 156.664062 111.375 156.726562 C 110.757812 158.453125 110.082031 160.242188 109.402344 161.96875 C 109.402344 162.03125 109.339844 162.089844 109.339844 162.152344 L 107.429688 167.210938 L 107.304688 167.457031 L 105.207031 172.761719 C 104.285156 175.105469 103.359375 177.449219 102.433594 179.792969 C 102.496094 179.792969 102.554688 179.792969 102.679688 179.792969 C 105.886719 179.667969 109.03125 179.605469 112.179688 179.605469 C 113.78125 179.605469 115.324219 179.605469 116.925781 179.667969 C 118.53125 179.667969 120.074219 179.792969 121.613281 179.792969 C 124.761719 179.914062 127.84375 180.101562 130.988281 180.347656 C 132.53125 180.46875 134.074219 180.59375 135.613281 180.777344 L 137.957031 181.027344 L 140.242188 181.273438 C 143.324219 181.640625 146.347656 182.074219 149.367188 182.566406 L 153.871094 183.371094 C 155.351562 183.617188 156.832031 183.984375 158.3125 184.292969 C 164.234375 185.589844 170.03125 187.070312 175.582031 188.980469 C 176.261719 189.230469 177 189.414062 177.679688 189.660156 L 179.714844 190.402344 L 181.75 191.140625 C 182.425781 191.386719 183.105469 191.632812 183.785156 191.941406 C 185.140625 192.496094 186.4375 193.050781 187.730469 193.609375 C 188.410156 193.855469 189.027344 194.164062 189.707031 194.472656 L 191.617188 195.394531 C 192.914062 196.011719 194.144531 196.566406 195.378906 197.308594 L 199.019531 199.28125 C 200.191406 199.960938 201.363281 200.699219 202.535156 201.441406 L 204.261719 202.550781 L 205.925781 203.722656 C 207.035156 204.460938 208.085938 205.265625 209.195312 206.066406 C 210.242188 206.867188 211.292969 207.730469 212.277344 208.535156 L 213.820312 209.765625 C 214.3125 210.199219 214.746094 210.628906 215.238281 211.0625 C 216.164062 211.925781 217.089844 212.851562 218.015625 213.714844 C 216.65625 213.222656 215.363281 212.726562 214.066406 212.234375 C 213.390625 211.988281 212.773438 211.742188 212.09375 211.492188 L 210.121094 210.816406 C 208.761719 210.382812 207.46875 209.890625 206.171875 209.457031 C 204.816406 209.027344 203.460938 208.65625 202.164062 208.226562 L 200.191406 207.609375 L 198.15625 207.054688 L 194.144531 205.941406 C 191.433594 205.328125 188.78125 204.585938 186.003906 204.03125 L 183.96875 203.597656 C 183.292969 203.476562 182.613281 203.289062 181.933594 203.167969 C 180.578125 202.921875 179.160156 202.675781 177.800781 202.425781 C 176.445312 202.179688 175.027344 201.996094 173.667969 201.75 L 171.632812 201.441406 C 170.957031 201.316406 170.214844 201.253906 169.539062 201.195312 C 163.984375 200.390625 158.375 199.898438 152.761719 199.46875 C 147.148438 199.035156 141.472656 198.851562 135.800781 198.789062 L 131.542969 198.789062 C 130.125 198.789062 128.707031 198.789062 127.289062 198.851562 C 125.871094 198.910156 124.453125 198.910156 123.03125 198.972656 C 121.613281 199.035156 120.195312 199.035156 118.777344 199.097656 C 115.941406 199.21875 113.101562 199.34375 110.203125 199.527344 C 108.785156 199.652344 107.367188 199.714844 105.949219 199.835938 L 103.789062 200.023438 L 101.691406 200.207031 C 98.855469 200.453125 96.019531 200.761719 93.242188 201.132812 C 91.824219 201.316406 90.46875 201.503906 89.109375 201.6875 C 88.433594 201.75 87.753906 201.871094 87.074219 201.996094 L 86.089844 202.117188 L 85.65625 202.179688 L 85.289062 202.242188 C 83.621094 202.550781 81.894531 202.613281 80.167969 202.367188 C 73.261719 201.378906 69.3125 195.953125 71.410156 190.214844 L 71.535156 189.84375 C 72.828125 186.328125 74.183594 182.753906 75.542969 179.238281 C 76.898438 175.722656 78.257812 172.207031 79.675781 168.628906 L 81.773438 163.324219 L 83.929688 158.019531 C 84.980469 155.367188 86.089844 152.777344 87.199219 150.125 C 83.128906 145.191406 79.859375 139.703125 77.269531 134.027344 C 74.617188 128.105469 72.707031 121.878906 71.59375 115.523438 C 70.421875 109.171875 70.054688 102.574219 70.421875 95.972656 C 70.609375 92.644531 70.976562 89.3125 71.535156 85.921875 C 72.089844 82.589844 72.890625 79.199219 73.878906 75.804688 C 74.800781 72.414062 75.972656 69.019531 77.515625 65.566406 Z M 77.515625 65.566406 " fill-opacity="1" fill-rule="nonzero"/></g></svg>